# xmcd
# Copyright (C) 1995-1998 Ti Kan
#
# Track frame offsets:
#       151
#       21724
#       33624
#       53262
#       85637
#       112599
#       122387
#       135024
#       147837
#       169824
#       190837
#       216462
#       231762
#       245037
#       259774
#
# Disc length: 3741 seconds
#
# Revision: 0
# Processed by: cddbd v1.5.2PL0 Copyright (c) Steve Scherf et al.
# Submitted via: CD-Transfer v1.0
#
DISCID=c40e9b0f
DTITLE=Velvet Underground, The - Reed, Cale, Morrison, Tucker, Nico
DYEAR=66
DGENRE=
TTITLE0=I'm Waiting For The Man
TTITLE1=Femme Fatale
TTITLE2=Run, Run, Run
TTITLE3=Heroin
TTITLE4=All Tomorrow's Parties
TTITLE5=I'll Be Your Mirror
TTITLE6=White Light, White Heat
TTITLE7=Stephanie Says
TTITLE8=What Goes On
TTITLE9=Beginning To See The Light
TTITLE10=Pale Blue Eyes
TTITLE11=I Can't Stand It
TTITLE12=Lisa Says
TTITLE13=Sweet Jane
TTITLE14=Rock And Roll
EXTD=
EXTT0=
EXTT1=
EXTT2=
EXTT3=
EXTT4=
EXTT5=
EXTT6=
EXTT7=
EXTT8=
EXTT9=
EXTT10=
EXTT11=
EXTT12=
EXTT13=
EXTT14=
PLAYORDER=
